<svg width="490" height="110" viewBox="0 0 490 110" fill="none" xmlns="http://www.w3.org/2000/svg">
<g clip-path="url(#clip0_1099_8680)">
<path d="M0 23.8826H18.3403V33.3629C22.804 27.0851 28.8371 22.6543 38.491 22.6543C53.576 22.6543 67.9344 34.7186 67.9344 56.7544V57C67.9344 79.0359 53.817 91.1001 38.491 91.1001C28.7167 91.1001 22.6834 86.5466 18.3403 81.2514V109.565H0V23.8826ZM49.594 56.9957V56.7501C49.594 45.7956 42.3526 38.5308 33.7865 38.5308C25.2207 38.5308 18.0995 45.7956 18.0995 56.7501V56.9957C18.0995 67.9499 25.2207 75.2148 33.7865 75.2148C42.3526 75.2148 49.594 68.0773 49.594 56.9957Z" fill="black"/>
<path d="M73.3418 23.8828H91.6821V37.1797C95.4233 28.1951 101.336 22.1631 112.314 22.6544V42.2293H111.351C99.1646 42.2293 91.6821 49.617 91.6821 65.4934V89.8676H73.3418V23.8828Z" fill="black"/>
<path d="M113.156 57.2414V56.9957C113.156 38.0396 128.121 22.6499 148.272 22.6499C168.422 22.6499 183.146 37.6666 183.146 56.7499V56.9957C183.146 75.9519 168.182 91.3415 148.031 91.3415C127.88 91.3415 113.156 76.3249 113.156 57.2414ZM165.042 57.2414V56.9957C165.042 47.2698 158.166 38.7764 148.027 38.7764C137.887 38.7764 131.256 46.9011 131.256 56.7499V56.9957C131.256 66.7217 138.132 75.2148 148.272 75.2148C158.411 75.2148 165.042 67.0901 165.042 57.2414Z" fill="black"/>
<path d="M321.772 0H340.112V33.2359C344.336 27.6951 349.887 22.6501 359.054 22.6501C373.052 22.6501 381.017 31.8846 381.017 47.1471V89.8631H362.677V53.0563C362.677 44.1945 358.694 39.6366 351.572 39.6366C344.453 39.6366 340.11 44.1902 340.11 53.0563V89.8631H321.77V0H321.772Z" fill="black"/>
<path d="M384.977 70.9065V70.6609C384.977 56.3811 395.714 49.6121 411.041 49.6121C417.675 49.6121 422.143 50.7221 426.848 52.3188V51.209C426.848 43.3299 422.143 39.1447 412.971 39.1447C405.85 39.1447 401.026 40.3775 395.112 42.7158L390.528 28.4361C397.649 25.3607 404.646 23.1409 415.627 23.1409C425.763 23.1409 432.764 25.725 437.469 30.5288C442.293 35.451 444.47 42.7158 444.47 51.5774V89.8629H426.732V82.7208C422.268 87.7659 416.234 91.0912 407.183 91.0912C394.996 91.0912 384.981 84.0719 384.981 70.9022L384.977 70.9065ZM427.087 66.5985V63.2732C423.83 61.7948 419.847 60.8121 415.383 60.8121C407.539 60.8121 402.715 64.0146 402.715 69.9195V70.1651C402.715 75.2101 406.816 78.167 412.73 78.167C421.42 78.167 427.087 73.4904 427.087 66.5942V66.5985Z" fill="black"/>
<path d="M455.39 71.1517V39.8856H447.666V23.8818H455.39V7.01392H473.73V23.8818H488.936V39.8856H473.73V68.0765C473.73 72.3845 475.661 74.4772 479.641 74.4772C482.901 74.4772 485.917 73.7402 488.69 72.1389V87.1555C484.828 89.4938 480.364 90.9723 474.211 90.9723C463.109 90.9723 455.39 86.4184 455.39 71.1517Z" fill="black"/>
<path d="M189.935 43.3917C189.741 43.8129 187.084 55.0127 188.507 63.0146C189.935 71.0166 195.379 77.6585 202.767 80.5232C210.154 83.3922 217.933 81.4268 217.933 81.4268C217.933 81.4268 203.175 73.5566 204.452 58.632C205.94 41.2728 224.801 42.4792 224.801 42.4792C224.801 42.4792 215.856 33.5736 206.654 35.0826C197.452 36.5919 191.1 40.8208 189.935 43.3828V43.3917Z" fill="url(#paint0_linear_1099_8680)"/>
<path d="M313.542 43.3917C313.736 43.8129 316.392 55.0127 314.969 63.0146C313.542 71.0166 308.098 77.6585 300.71 80.5232C293.322 83.3922 285.545 81.4268 285.545 81.4268C285.545 81.4268 300.303 73.5566 299.025 58.632C297.537 41.2728 278.676 42.4792 278.676 42.4792C278.676 42.4792 287.621 33.5736 296.824 35.0826C306.026 36.5919 312.376 40.8208 313.542 43.3828V43.3917Z" fill="url(#paint1_linear_1099_8680)"/>
<path d="M242.702 36.1357C242.467 35.9074 242.174 35.6399 241.829 35.3415C239.757 33.5296 235.84 30.5245 231.181 27.7651C220.668 21.5313 208.83 20.2239 198.763 28.2346C187.14 37.4867 188.374 50.4723 188.215 54.4075C188.318 51.8542 192.571 47.2479 194.123 45.3964C195.96 43.2031 198.041 41.2069 200.432 39.7593C204.465 37.3112 209.015 36.7848 213.487 37.9344C220.148 39.6408 226.277 43.6153 230.799 47.5154" fill="url(#paint2_linear_1099_8680)"/>
<path d="M305.28 72.4551C300.825 76.0087 295.39 77.2459 290.007 75.8375C279.853 73.1789 271.792 63.2469 266.01 54.3721C265.491 54.8941 262.497 57.9343 261.987 58.4388C258.58 61.8168 257.698 62.8257 254.279 66.296C259.166 73.7012 264.759 81.4748 272.338 85.9892C278.439 89.6215 285.44 92.2097 292.466 91.078C302.387 89.4811 311.562 81.6504 314.294 70.9767C315.261 67.1951 315.391 63.2907 315.391 59.3952C313.012 65.1026 307.611 70.6083 305.284 72.464L305.28 72.4551Z" fill="url(#paint3_linear_1099_8680)"/>
<path d="M315.384 54.4073C315.279 51.854 311.027 47.2477 309.475 45.3962C307.638 43.2029 305.557 41.2067 303.165 39.7591C299.133 37.311 294.582 36.7846 290.11 37.9339C279.218 40.7285 269.977 50.5027 261.978 58.4388C252.248 68.0947 242.92 79.049 231.263 85.9847C225.161 89.6172 218.16 92.2055 211.133 91.0737C201.213 89.4768 192.036 81.6461 189.306 70.9724C188.338 67.1908 188.209 63.2864 188.209 59.3909C190.587 65.0983 195.988 70.604 198.314 72.4598C202.769 76.0131 208.205 77.2503 213.589 75.8421C224.743 72.9204 234.113 62.782 242.304 54.6616C247.56 49.5595 252.518 44.5409 257.514 39.5836C262.065 35.0736 266.979 30.9893 272.407 27.7692C282.921 21.5354 294.759 20.2281 304.825 28.2388C316.449 37.4909 315.216 50.4764 315.375 54.4116L315.384 54.4073Z" fill="url(#paint4_linear_1099_8680)"/>
</g>
<defs>
<linearGradient id="paint0_linear_1099_8680" x1="188.09" y1="58.5006" x2="224.805" y2="58.5006" gradientUnits="userSpaceOnUse">
<stop stop-color="#00E5FF"/>
<stop offset="0.12" stop-color="#29B8FE"/>
<stop offset="0.29" stop-color="#5E81FD"/>
<stop offset="0.46" stop-color="#8952FD"/>
<stop offset="0.62" stop-color="#AB2EFC"/>
<stop offset="0.76" stop-color="#C415FC"/>
<stop offset="0.9" stop-color="#D205FC"/>
<stop offset="1" stop-color="#D800FC"/>
</linearGradient>
<linearGradient id="paint1_linear_1099_8680" x1="278.671" y1="-0.000126461" x2="315.383" y2="-0.000126461" gradientUnits="userSpaceOnUse">
<stop stop-color="#00E5FF"/>
<stop offset="0.12" stop-color="#29B8FE"/>
<stop offset="0.29" stop-color="#5E81FD"/>
<stop offset="0.46" stop-color="#8952FD"/>
<stop offset="0.62" stop-color="#AB2EFC"/>
<stop offset="0.76" stop-color="#C415FC"/>
<stop offset="0.9" stop-color="#D205FC"/>
<stop offset="1" stop-color="#D800FC"/>
</linearGradient>
<linearGradient id="paint2_linear_1099_8680" x1="188.215" y1="38.5308" x2="242.702" y2="38.5308" gradientUnits="userSpaceOnUse">
<stop stop-color="#00E5FF"/>
<stop offset="0.12" stop-color="#29B8FE"/>
<stop offset="0.29" stop-color="#5E81FD"/>
<stop offset="0.46" stop-color="#8952FD"/>
<stop offset="0.62" stop-color="#AB2EFC"/>
<stop offset="0.76" stop-color="#C415FC"/>
<stop offset="0.9" stop-color="#D205FC"/>
<stop offset="1" stop-color="#D800FC"/>
</linearGradient>
<linearGradient id="paint3_linear_1099_8680" x1="254.277" y1="72.8543" x2="315.382" y2="72.8543" gradientUnits="userSpaceOnUse">
<stop stop-color="#00E5FF"/>
<stop offset="0.12" stop-color="#29B8FE"/>
<stop offset="0.29" stop-color="#5E81FD"/>
<stop offset="0.46" stop-color="#8952FD"/>
<stop offset="0.62" stop-color="#AB2EFC"/>
<stop offset="0.76" stop-color="#C415FC"/>
<stop offset="0.9" stop-color="#D205FC"/>
<stop offset="1" stop-color="#D800FC"/>
</linearGradient>
<linearGradient id="paint4_linear_1099_8680" x1="188.165" y1="59.8972" x2="315.523" y2="54.3592" gradientUnits="userSpaceOnUse">
<stop stop-color="#00E5FF"/>
<stop offset="0.12" stop-color="#29B8FE"/>
<stop offset="0.29" stop-color="#5E81FD"/>
<stop offset="0.46" stop-color="#8952FD"/>
<stop offset="0.62" stop-color="#AB2EFC"/>
<stop offset="0.76" stop-color="#C415FC"/>
<stop offset="0.9" stop-color="#D205FC"/>
<stop offset="1" stop-color="#D800FC"/>
</linearGradient>
<clipPath id="clip0_1099_8680">
<rect width="490" height="109.565" fill="white"/>
</clipPath>
</defs>
</svg>
